<svg width="962" height="554" viewBox="0 0 962 554" fill="none" xmlns="http://www.w3.org/2000/svg">
<g clip-path="url(#clip0_1_2)">
<rect width="962" height="554" fill="white"/>
<rect width="38.3751" height="310.031" transform="matrix(0.700282 0.713866 -0.700282 0.713866 145.138 -74.7936)" fill="#FF4CA3"/>
<rect width="38.3751" height="413.486" transform="matrix(0.700282 0.713866 -0.700282 0.713866 232.588 -43.6772)" fill="#FF4CA3"/>
<rect width="38.3751" height="530.939" transform="matrix(0.700282 0.713866 -0.700282 0.713866 339.602 -43.1883)" fill="#FF4CA3"/>
<rect width="38.3751" height="708.918" transform="matrix(0.700282 0.713866 -0.700282 0.713866 445.855 -43.1883)" fill="#FF4CA3"/>
<rect width="38.3751" height="862.532" transform="matrix(0.700282 0.713866 -0.700282 0.713866 564.99 -43.1883)" fill="#FF4CA3"/>
<rect width="38.3751" height="862.532" transform="matrix(0.700282 0.713866 -0.700282 0.713866 678.064 -42.1688)" fill="#FF4CA3"/>
<rect width="38.3751" height="862.532" transform="matrix(0.700282 0.713866 -0.700282 0.713866 809.08 -42.1688)" fill="#FF4CA3"/>
<rect width="38.3751" height="862.532" transform="matrix(0.700283 0.713866 -0.700283 0.713866 926.095 -43.1883)" fill="#FF4CA3"/>
<rect width="38.3751" height="862.532" transform="matrix(0.700282 0.713866 -0.700282 0.713866 1014.11 -14.6416)" fill="#FF4CA3"/>
<rect width="38.3751" height="862.532" transform="matrix(0.700282 0.713866 -0.700282 0.713866 1086.12 35.3151)" fill="#FF4CA3"/>
<rect width="38.3751" height="862.532" transform="matrix(0.700282 0.713866 -0.700282 0.713866 1136.12 97.5062)" fill="#FF4CA3"/>
<rect width="38.3752" height="862.532" transform="matrix(0.700282 0.713866 -0.700282 0.713866 1176.13 168.873)" fill="#FF4CA3"/>
<rect width="38.3752" height="92.1173" transform="matrix(0.700283 0.713866 -0.700283 0.713866 960.531 497.539)" fill="#FF4CA3"/>
<rect width="10.0987" height="735.187" transform="matrix(0.700282 0.713866 -0.700282 0.713866 210.839 -190)" fill="#00BA32"/>
<rect width="10.0987" height="735.187" transform="matrix(0.700282 0.713866 -0.700282 0.713866 288.848 -140.043)" fill="#00BA32"/>
<rect width="10.0987" height="735.187" transform="matrix(0.700282 0.713866 -0.700282 0.713866 354.857 -92.1255)" fill="#00BA32"/>
<rect width="10.0987" height="735.187" transform="matrix(0.700282 0.713866 -0.700282 0.713866 409.864 -43.1883)" fill="#00BA32"/>
<rect width="10.0987" height="857.458" transform="matrix(0.700282 0.713866 -0.700282 0.713866 549.881 -68.6765)" fill="#00BA32"/>
<rect width="10.0987" height="857.458" transform="matrix(0.700282 0.713866 -0.700282 0.713866 630.505 -31.9735)" fill="#00BA32"/>
<rect width="10.0987" height="857.458" transform="matrix(0.700282 0.713866 -0.700282 0.713866 756.521 -31.9735)" fill="#00BA32"/>
<rect width="10.0987" height="857.458" transform="matrix(0.700282 0.713866 -0.700282 0.713866 869.535 -22.7978)" fill="#00BA32"/>
<rect width="10.0987" height="857.458" transform="matrix(0.700282 0.713866 -0.700282 0.713866 966.547 -3.42682)" fill="#00BA32"/>
<rect width="10.0987" height="857.458" transform="matrix(0.700282 0.713866 -0.700282 0.713866 1047.56 35.3151)" fill="#00BA32"/>
<rect width="10.0987" height="857.458" transform="matrix(0.700282 0.713866 -0.700282 0.713866 1106.56 90.3695)" fill="#00BA32"/>
<rect width="10.0987" height="857.458" transform="matrix(0.700282 0.713866 -0.700282 0.713866 1166.57 140.326)" fill="#00BA32"/>
<rect width="10.0987" height="335.183" transform="matrix(0.700282 0.713866 -0.700282 0.713866 972.854 450.262)" fill="#00BA32"/>
</g>
<rect x="0.5" y="0.5" width="961" height="553" stroke="black"/>
<rect x="0.5" y="0.5" width="961" height="553" stroke="black" stroke-opacity="0.2"/>
<defs>
<clipPath id="clip0_1_2">
<rect width="962" height="554" fill="white"/>
</clipPath>
</defs>
</svg>
