<svg width="446" height="84" viewBox="0 0 446 84" fill="none" xmlns="http://www.w3.org/2000/svg">
<g filter="url(#filter0_d_1_121)">
<path d="M49.375 28.0312L46.5 73.9062L32.25 74.5312L32.375 50.3438L25.9375 69.8438H20.4375L15.5 52.4062L15.4375 72.6562L1 73.0938L1.625 29.9062L17.6875 29.2812L24.0625 49.9688L32.5625 28.0312H49.375Z" fill="#FF0099"/>
<path d="M89.875 51.5312C89.875 53.4271 89.6562 55.2604 89.2188 57.0312C88.7812 58.7812 88.1458 60.4271 87.3125 61.9688C86.5 63.5104 85.5 64.9271 84.3125 66.2188C83.1458 67.4896 81.8229 68.5833 80.3438 69.5C78.8854 70.4167 77.2917 71.1354 75.5625 71.6562C73.8333 72.1562 72 72.4062 70.0625 72.4062C68.1875 72.4062 66.3958 72.1667 64.6875 71.6875C63 71.2083 61.4167 70.5417 59.9375 69.6875C58.4583 68.8125 57.1146 67.7708 55.9062 66.5625C54.7188 65.3333 53.6979 63.9792 52.8438 62.5C52.0104 61 51.3542 59.3958 50.875 57.6875C50.4167 55.9792 50.1875 54.1979 50.1875 52.3438C50.1875 50.5312 50.4062 48.7604 50.8438 47.0312C51.2812 45.2812 51.9062 43.6354 52.7188 42.0938C53.5521 40.5521 54.5521 39.1354 55.7188 37.8438C56.8854 36.5521 58.1875 35.4375 59.625 34.5C61.0833 33.5625 62.6562 32.8333 64.3438 32.3125C66.0312 31.7917 67.8125 31.5312 69.6875 31.5312C72.7083 31.5312 75.4583 32 77.9375 32.9375C80.4375 33.875 82.5625 35.2188 84.3125 36.9688C86.0833 38.6979 87.4479 40.8021 88.4062 43.2812C89.3854 45.7396 89.875 48.4896 89.875 51.5312ZM76 52.3438C76 51.4479 75.8646 50.5833 75.5938 49.75C75.3438 48.8958 74.9688 48.1458 74.4688 47.5C73.9688 46.8333 73.3438 46.3021 72.5938 45.9062C71.8646 45.4896 71.0208 45.2812 70.0625 45.2812C69.0833 45.2812 68.2083 45.4583 67.4375 45.8125C66.6667 46.1667 66 46.6562 65.4375 47.2812C64.8958 47.8854 64.4792 48.6042 64.1875 49.4375C63.8958 50.25 63.75 51.1146 63.75 52.0312C63.75 52.9062 63.875 53.7812 64.125 54.6562C64.375 55.5312 64.75 56.3229 65.25 57.0312C65.75 57.7396 66.3646 58.3125 67.0938 58.75C67.8438 59.1875 68.7083 59.4062 69.6875 59.4062C70.6667 59.4062 71.5417 59.2188 72.3125 58.8438C73.1042 58.4479 73.7708 57.9271 74.3125 57.2812C74.8542 56.6146 75.2708 55.8542 75.5625 55C75.8542 54.1458 76 53.2604 76 52.3438Z" fill="#FF0099"/>
<path d="M128.688 43.4688C128.688 45.0938 128.542 46.5729 128.25 47.9062C127.979 49.2188 127.542 50.4271 126.938 51.5312C126.333 52.6354 125.552 53.6562 124.594 54.5938C123.635 55.5312 122.479 56.4271 121.125 57.2812L128.562 70.5312L114.5 73.2812L109.688 59.9688L105.812 60.0938L105.25 73.0938H91.8125C91.9167 68.3438 92.0104 63.6146 92.0938 58.9062C92.1979 54.1979 92.3125 49.4688 92.4375 44.7188C92.4792 42.3229 92.5208 39.9479 92.5625 37.5938C92.6042 35.2396 92.6875 32.8646 92.8125 30.4688C94.2708 29.9271 95.7083 29.4792 97.125 29.125C98.5417 28.7708 99.9583 28.5 101.375 28.3125C102.812 28.1042 104.26 27.9688 105.719 27.9062C107.198 27.8229 108.708 27.7812 110.25 27.7812C112.625 27.7812 114.917 28.1146 117.125 28.7812C119.354 29.4271 121.323 30.4062 123.031 31.7188C124.74 33.0312 126.104 34.6667 127.125 36.625C128.167 38.5833 128.688 40.8646 128.688 43.4688ZM114.688 44.4688C114.688 43.5938 114.562 42.7917 114.312 42.0625C114.083 41.3333 113.729 40.7083 113.25 40.1875C112.792 39.6458 112.208 39.2292 111.5 38.9375C110.812 38.625 110 38.4688 109.062 38.4688C108.646 38.4688 108.24 38.5 107.844 38.5625C107.448 38.6042 107.062 38.6771 106.688 38.7812L106.188 50.4062H106.938C107.833 50.4062 108.74 50.2917 109.656 50.0625C110.594 49.8333 111.427 49.4792 112.156 49C112.906 48.5208 113.51 47.9062 113.969 47.1562C114.448 46.4062 114.688 45.5104 114.688 44.4688Z" fill="#FF0099"/>
<path d="M170.281 70.9062L154.781 72.9062L152.906 65.8438H145.781L144.219 72.9062L128.281 71.3438L140.719 29.7188L158.094 28.8438L170.281 70.9062ZM151.781 56.2812L149.406 45.4062L147.094 56.2812H151.781Z" fill="#FF0099"/>
<path d="M213.438 28.7812L211.188 71.1562L194.812 72.6562L186.062 49.9688L184.688 73.0938H170.625L171.75 28.7812L187.375 28.0312L198.188 50.5312L198.688 29.2812L213.438 28.7812Z" fill="#FF0099"/>
<path d="M253.719 67.2188C252.74 68.4479 251.531 69.5208 250.094 70.4375C248.656 71.3542 247.115 72.1146 245.469 72.7188C243.823 73.3229 242.135 73.7708 240.406 74.0625C238.677 74.375 237.031 74.5312 235.469 74.5312C232.448 74.5312 229.667 73.9896 227.125 72.9062C224.583 71.8229 222.385 70.3333 220.531 68.4375C218.698 66.5208 217.26 64.2708 216.219 61.6875C215.177 59.1042 214.656 56.3229 214.656 53.3438C214.656 51.0729 214.917 48.8542 215.438 46.6875C215.958 44.5 216.698 42.4479 217.656 40.5312C218.635 38.5938 219.823 36.8229 221.219 35.2188C222.615 33.5938 224.198 32.1979 225.969 31.0312C227.74 29.8646 229.677 28.9583 231.781 28.3125C233.885 27.6667 236.135 27.3438 238.531 27.3438C239.427 27.3438 240.385 27.3854 241.406 27.4688C242.427 27.5312 243.438 27.6562 244.438 27.8438C245.458 28.0104 246.448 28.25 247.406 28.5625C248.365 28.875 249.24 29.2604 250.031 29.7188L249.156 41.6562C247.99 41.2188 246.781 40.9271 245.531 40.7812C244.302 40.6146 243.094 40.5312 241.906 40.5312C240.24 40.5312 238.677 40.7917 237.219 41.3125C235.781 41.8125 234.521 42.5417 233.438 43.5C232.375 44.4583 231.531 45.625 230.906 47C230.281 48.375 229.969 49.9271 229.969 51.6562C229.969 52.7396 230.115 53.7917 230.406 54.8125C230.698 55.8125 231.135 56.7083 231.719 57.5C232.323 58.2708 233.062 58.8958 233.938 59.375C234.833 59.8542 235.865 60.0938 237.031 60.0938C237.823 60.0938 238.635 59.9896 239.469 59.7812C240.323 59.5729 241.052 59.2188 241.656 58.7188L241.781 56.2812L234.281 56.1562L234.656 46.7812C237.76 46.6771 240.865 46.5938 243.969 46.5312C247.073 46.4479 250.198 46.3438 253.344 46.2188L253.719 67.2188Z" fill="#FF0099"/>
<path d="M293.5 38.8438C293.5 40.3854 293.427 42.0833 293.281 43.9375C293.135 45.7917 292.896 47.7083 292.562 49.6875C292.229 51.6667 291.792 53.6771 291.25 55.7188C290.729 57.7396 290.073 59.6875 289.281 61.5625C288.49 63.4375 287.562 65.1979 286.5 66.8438C285.458 68.4688 284.25 69.8958 282.875 71.125C281.521 72.3333 280 73.2812 278.312 73.9688C276.625 74.6771 274.75 75.0312 272.688 75.0312C270.271 75.0312 268.167 74.6354 266.375 73.8438C264.604 73.0729 263.083 72.0312 261.812 70.7188C260.542 69.3854 259.5 67.8438 258.688 66.0938C257.875 64.3229 257.24 62.4583 256.781 60.5C256.323 58.5208 256 56.5104 255.812 54.4688C255.646 52.4062 255.562 50.4271 255.562 48.5312C255.562 45.6146 255.708 42.7083 256 39.8125C256.292 36.8958 256.708 33.9896 257.25 31.0938L271.875 31.6562C271.312 34.9271 270.823 38.2188 270.406 41.5312C270.01 44.8229 269.812 48.1354 269.812 51.4688C269.812 51.8229 269.823 52.3542 269.844 53.0625C269.885 53.75 269.948 54.5312 270.031 55.4062C270.115 56.2604 270.229 57.1458 270.375 58.0625C270.542 58.9583 270.76 59.7812 271.031 60.5312C271.302 61.2812 271.625 61.8958 272 62.375C272.396 62.8542 272.854 63.0938 273.375 63.0938C273.979 63.0938 274.521 62.8125 275 62.25C275.479 61.6667 275.896 60.8958 276.25 59.9375C276.625 58.9792 276.948 57.875 277.219 56.625C277.49 55.375 277.719 54.0729 277.906 52.7188C278.094 51.3646 278.24 50.0104 278.344 48.6562C278.469 47.3021 278.562 46.0417 278.625 44.875C278.708 43.7083 278.76 42.6771 278.781 41.7812C278.802 40.8854 278.812 40.2188 278.812 39.7812C278.812 38.1562 278.781 36.5417 278.719 34.9375C278.677 33.3125 278.604 31.6979 278.5 30.0938H293.125C293.375 32.9688 293.5 35.8854 293.5 38.8438Z" fill="#FF0099"/>
<path d="M312.875 29.5938L309.438 72.1562L296.25 72.8438V30.4688L312.875 29.5938Z" fill="#FF0099"/>
<path d="M357.562 28.7812L355.312 71.1562L338.938 72.6562L330.188 49.9688L328.812 73.0938H314.75L315.875 28.7812L331.5 28.0312L342.312 50.5312L342.812 29.2812L357.562 28.7812Z" fill="#FF0099"/>
<path d="M397.219 73.5938L381.594 74.3438L381.469 59.9062H374.281L373.844 73.5938H359.844L361.031 29.6562L375.906 30.3438L374.969 52.7812H381.906L381.969 28.6562L396.219 29.0312L397.219 73.5938Z" fill="#FF0099"/>
<path d="M438.812 51.5312C438.812 53.4271 438.594 55.2604 438.156 57.0312C437.719 58.7812 437.083 60.4271 436.25 61.9688C435.438 63.5104 434.438 64.9271 433.25 66.2188C432.083 67.4896 430.76 68.5833 429.281 69.5C427.823 70.4167 426.229 71.1354 424.5 71.6562C422.771 72.1562 420.938 72.4062 419 72.4062C417.125 72.4062 415.333 72.1667 413.625 71.6875C411.938 71.2083 410.354 70.5417 408.875 69.6875C407.396 68.8125 406.052 67.7708 404.844 66.5625C403.656 65.3333 402.635 63.9792 401.781 62.5C400.948 61 400.292 59.3958 399.812 57.6875C399.354 55.9792 399.125 54.1979 399.125 52.3438C399.125 50.5312 399.344 48.7604 399.781 47.0312C400.219 45.2812 400.844 43.6354 401.656 42.0938C402.49 40.5521 403.49 39.1354 404.656 37.8438C405.823 36.5521 407.125 35.4375 408.562 34.5C410.021 33.5625 411.594 32.8333 413.281 32.3125C414.969 31.7917 416.75 31.5312 418.625 31.5312C421.646 31.5312 424.396 32 426.875 32.9375C429.375 33.875 431.5 35.2188 433.25 36.9688C435.021 38.6979 436.385 40.8021 437.344 43.2812C438.323 45.7396 438.812 48.4896 438.812 51.5312ZM424.938 52.3438C424.938 51.4479 424.802 50.5833 424.531 49.75C424.281 48.8958 423.906 48.1458 423.406 47.5C422.906 46.8333 422.281 46.3021 421.531 45.9062C420.802 45.4896 419.958 45.2812 419 45.2812C418.021 45.2812 417.146 45.4583 416.375 45.8125C415.604 46.1667 414.938 46.6562 414.375 47.2812C413.833 47.8854 413.417 48.6042 413.125 49.4375C412.833 50.25 412.688 51.1146 412.688 52.0312C412.688 52.9062 412.812 53.7812 413.062 54.6562C413.312 55.5312 413.688 56.3229 414.188 57.0312C414.688 57.7396 415.302 58.3125 416.031 58.75C416.781 59.1875 417.646 59.4062 418.625 59.4062C419.604 59.4062 420.479 59.2188 421.25 58.8438C422.042 58.4479 422.708 57.9271 423.25 57.2812C423.792 56.6146 424.208 55.8542 424.5 55C424.792 54.1458 424.938 53.2604 424.938 52.3438Z" fill="#FF0099"/>
<path d="M315.656 9.9375C315.656 11.3125 315.391 12.5938 314.859 13.7812C314.328 14.9688 313.609 16.0156 312.703 16.9219C311.828 17.7969 310.797 18.5 309.609 19.0312C308.422 19.5312 307.156 19.7812 305.812 19.7812C304.438 19.7812 303.156 19.5312 301.969 19.0312C300.781 18.5 299.734 17.7969 298.828 16.9219C297.953 16.0156 297.25 14.9688 296.719 13.7812C296.219 12.5938 295.969 11.3125 295.969 9.9375C295.969 8.59375 296.219 7.3125 296.719 6.09375C297.25 4.875 297.953 3.82812 298.828 2.95312C299.734 2.04688 300.781 1.32812 301.969 0.796875C303.156 0.265625 304.438 0 305.812 0C307.156 0 308.422 0.265625 309.609 0.796875C310.797 1.32812 311.828 2.04688 312.703 2.95312C313.609 3.82812 314.328 4.875 314.859 6.09375C315.391 7.3125 315.656 8.59375 315.656 9.9375Z" fill="#FFFF00"/>
</g>
<defs>
<filter id="filter0_d_1_121" x="0" y="0" width="445.812" height="83.0312" filterUnits="userSpaceOnUse" color-interpolation-filters="sRGB">
<feFlood flood-opacity="0" result="BackgroundImageFix"/>
<feColorMatrix in="SourceAlpha" type="matrix" values="0 0 0 0 0 0 0 0 0 0 0 0 0 0 0 0 0 0 127 0" result="hardAlpha"/>
<feOffset dx="3" dy="4"/>
<feGaussianBlur stdDeviation="2"/>
<feComposite in2="hardAlpha" operator="out"/>
<feColorMatrix type="matrix" values="0 0 0 0 0 0 0 0 0 0 0 0 0 0 0 0 0 0 0.5 0"/>
<feBlend mode="normal" in2="BackgroundImageFix" result="effect1_dropShadow_1_121"/>
<feBlend mode="normal" in="SourceGraphic" in2="effect1_dropShadow_1_121" result="shape"/>
</filter>
</defs>
</svg>
